<?xml version="1.0" standalone="no"?>
<!DOCTYPE svg PUBLIC "-//W3C//DTD SVG 20010904//EN"
 "http://www.w3.org/TR/2001/REC-SVG-20010904/DTD/svg10.dtd">
<svg version="1.0" xmlns="http://www.w3.org/2000/svg"
 width="154.000000pt" height="154.000000pt" viewBox="0 0 154.000000 154.000000"
 preserveAspectRatio="xMidYMid meet">
<metadata>
Created by potrace 1.14, written by Peter Selinger 2001-2017
</metadata>
<g transform="translate(0.000000,154.000000) scale(0.100000,-0.100000)"
fill="#000000" stroke="none">
<path d="M352 1114 c-39 -20 -52 -44 -117 -216 l-48 -128 -91 0 -91 0 -1 -61
0 -61 117 4 c138 4 153 12 190 107 12 31 28 70 34 86 7 17 24 59 38 95 l26 65
1 -193 c0 -199 4 -220 43 -255 41 -35 111 -34 154 2 13 11 39 61 59 113 20 51
57 145 82 208 24 63 46 116 47 118 2 2 3 -109 3 -247 0 -219 2 -253 17 -279
41 -69 132 -81 185 -25 19 19 61 115 131 296 l103 267 46 0 c50 0 102 -26 120
-60 15 -28 15 -92 1 -119 -19 -35 -71 -61 -121 -61 l-45 0 -1 -61 0 -61 65 4
c143 11 234 104 233 239 0 93 -46 170 -126 211 -48 25 -184 36 -229 19 -36
-14 -37 -16 -214 -476 l-38 -100 -5 257 -5 258 -31 31 c-57 57 -147 47 -187
-20 -8 -14 -48 -111 -88 -216 l-74 -190 -5 195 c-3 107 -9 202 -13 210 -25 49
-110 72 -165 44z"/>
</g>
</svg>
